<svg xmlns="http://www.w3.org/2000/svg" viewBox="0 0 1201.63 301.35"><defs><style>.cls-1{fill:#febc12;}.cls-2{fill:none;stroke:#ffdea4;stroke-linecap:round;stroke-linejoin:round;stroke-width:2px;}.cls-3{fill:#ffdea4;}</style></defs><g id="Layer_2" data-name="Layer 2"><g id="Layer_1-2" data-name="Layer 1"><polyline class="cls-1" points="151.56 0 1200.88 0 1200.88 300 0.88 300 0.88 0 151.56 0"/><path class="cls-2" d="M1.15,60.36C19.35,90,21.63,128,1.25,158"/><path class="cls-2" d="M1.11,42.69c41.63,36,50,103.54.08,142.09"/><path class="cls-2" d="M13.41,1.73C57.09,40.4,63,114.24,1.31,150.59"/><path class="cls-2" d="M1.2,22.62A95.57,95.57,0,0,1,34.8,2.45"/><path class="cls-2" d="M110.51,2.32c40.62,13.44,72.54,48.42,66,99.35-16.84,91.71-122,101.69-175.06,56.27"/><path class="cls-2" d="M1,19C65.88-8.16,158.89,32.46,148.12,116.09c-14.21,77.37-91.29,96.57-146.89,73.42"/><path class="cls-2" d="M1.19,29.16A85.71,85.71,0,0,1,26.49,2.33"/><path class="cls-2" d="M153.31,2.49c29.16,17.4,44.36,45.72,39.07,86.8C173.6,191.53,45,192.19,1.34,127.78"/><path class="cls-2" d="M148.61,2c9.52,15.49,14.15,34.39,11.38,56.18C145,139.8,57.42,156.28,1.3,126.94"/><path class="cls-3" d="M106.93,103.68v2c22.15,0,43.59,6.29,60.37,17.72C186,136.13,198.82,155,204.45,178c5.19,29.95-1.1,56.51-18.18,76.81-18.61,22.12-49.18,35.32-81.76,35.32-22.15,0-43.59-6.29-60.37-17.72C25.47,259.67,12.62,240.79,7,217.8,1.8,187.86,8.09,161.31,25.17,141c18.61-22.12,49.18-35.32,81.76-35.32v-2m0,0C49.65,103.68-7.81,144.29,5,218.21c12.3,50.35,55.84,73.91,99.48,73.91,57.29,0,114.74-40.61,101.9-114.53-12.3-50.35-55.84-73.91-99.48-73.91Z"/><path class="cls-2" d="M27.66,300.19a91.87,91.87,0,0,1-26.6-22.87"/><path class="cls-2" d="M1.23,163c46.71-57.21,162.24-50.54,183.6,36.88,8.44,48.59-13.5,82.79-45.79,100.52"/><path class="cls-3" d="M117.47,87.17v2c22.15,0,43.59,6.29,60.36,17.72,18.68,12.73,31.53,31.61,37.16,54.59,5.18,30-1.1,56.5-18.19,76.81-18.6,22.12-49.17,35.32-81.75,35.32-22.16,0-43.6-6.29-60.37-17.72C36,243.16,23.16,224.28,17.52,201.29c-5.18-29.94,1.11-56.5,18.19-76.8,18.61-22.12,49.17-35.32,81.76-35.32v-2m0,0C60.18,87.17,2.73,127.78,15.56,201.7c12.31,50.35,55.85,73.91,99.49,73.91,57.28,0,114.74-40.61,101.9-114.53-12.3-50.35-55.84-73.91-99.48-73.91Z"/><path class="cls-2" d="M1.15,94.66c51.27-46,154-35,174,46.89C193.94,249.57,62.63,286.46,1,229.47"/><path class="cls-2" d="M764.24,2.05c53.16,68.21-32.66,193.69-140.62,165.1C536.3,139.24,544.27,52.74,595.1,2.49"/><path class="cls-2" d="M729.23,2.48C854.55,50.91,758.1,231.07,630.9,197.39c-110.26-35.25-68.58-163.91,19.47-195"/><path class="cls-2" d="M765.44,1.74c29.2,69.94-51.39,174.1-150.75,147.79-77.75-24.85-80-96.16-43.61-146.95"/><path class="cls-2" d="M701.67,2.15C771.13,67.47,682.4,206.31,569.4,176.39,476.53,146.7,491.45,50.75,551.07,2.62"/><path class="cls-2" d="M643.41,2.48c-7.64,18-21.28,35.6-42.08,51.17C514.71,113,437,66.05,428.13,2"/><path class="cls-2" d="M679,2.28c-6.93,20.31-21.27,40.45-44.69,58C544.91,121.51,465,69.6,460.43,2.49"/><path class="cls-2" d="M621.08,2.45c-7.66,17.92-21.28,35.5-42,51C492.6,112.73,415,66.05,405.91,2.16"/><path class="cls-2" d="M623.37,2.18C627,34.51,613.14,70.88,574.21,100c-106.5,73-199.55-14.75-167.7-97.4"/><path class="cls-2" d="M652.93,2.57c-45,28.05-94,23.09-126.37-.26"/><path class="cls-2" d="M1200.29,220.88c-15.08,3.53-30,3.09-43.07-6.34-25.49-17-72.78-36.1-67.18-71.86,3.3-28.8-2.38-76,34.11-89.4,21.48-8.78,50.11-26.66,76.09-25.89"/><path class="cls-2" d="M1200,227.35a43.13,43.13,0,0,1-11.27-5.88c-25.49-17-72.78-36.1-67.19-71.86,3.31-28.8-2.37-76,34.12-89.4,13-5.31,28.55-13.93,44.58-19.76"/><path class="cls-2" d="M1200.56,213.15c-21.77,9-45,14.52-64.15.69-25.49-17-72.78-36.1-67.19-71.86,3.31-28.8-2.37-76,34.12-89.4,27.5-11.25,66.71-37.4,97.09-20.25"/><path class="cls-2" d="M1200.63,256.63c-21.47,8.75-44.3,13.88-63.13.27-25.49-17-72.78-36.11-67.19-71.86,3.3-28.8-2.37-76,34.12-89.41,27-11,65.26-36.42,95.39-21.15"/><path class="cls-2" d="M1200.6,109.52c-20.45-6.3-38.61-16.17-42.87-36.1-5.22-20.29-18.25-48.15-14.11-71"/><path class="cls-2" d="M1200.49,89.35a37.09,37.09,0,0,1-10.51-19c-5-19.38-17.1-45.66-14.56-67.92"/><path class="cls-2" d="M1200.25,120.26c-27.24-6.18-56.81-15-62.42-41.18-5.64-21.93-20.41-52.71-12.74-76.48"/><path class="cls-2" d="M1200.06,156.33c-21.58-6.26-41.24-16.1-45.71-37-7.25-28.18-29.58-71,0-94.74,7.19-6.22,15-14.34,23.45-22.19"/><path class="cls-3" d="M1050.12,83.8v2c10.7,0,19.64,2.93,27.33,9l.06,0c4.6,3.34,9.9,6.74,15.51,10.34,12.06,7.74,25.72,16.51,35.36,26.72,10.8,11.43,14.86,22.93,12.42,35.14,0,0,0,.06,0,.08-.84,5.35-1.4,11.27-2,17.54-1.26,13.45-2.69,28.69-7.48,41.45-5.38,14.33-14.23,23.34-27.07,27.53l-.06,0c-5.45,2-11.3,4.51-17.5,7.17-17.4,7.49-37.13,16-55.23,16-10.7,0-19.64-2.93-27.32-8.94l-.06-.05c-4.61-3.34-9.91-6.74-15.51-10.34-12.06-7.74-25.73-16.51-35.37-26.72-10.8-11.43-14.86-22.92-12.41-35.14,0,0,0,0,0-.08.84-5.35,1.4-11.27,2-17.54,1.26-13.45,2.7-28.69,7.48-41.44,5.39-14.34,14.24-23.35,27.07-27.54l.07,0c5.44-2,11.29-4.51,17.49-7.17,17.41-7.48,37.14-16,55.23-16v-2m0,0c-25,0-52.61,15.64-73.41,23.27-37,12.1-33.37,59.45-37.9,88.11-7.11,35.52,39.34,56.28,64.09,74.21,8.65,6.78,18.38,9.37,28.55,9.37,25,0,52.61-15.64,73.42-23.26,37-12.1,33.36-59.45,37.89-88.11,7.11-35.53-39.34-56.29-64.08-74.22-8.66-6.78-18.39-9.37-28.56-9.37Z"/><path class="cls-3" d="M1073.32,63v2c10.7,0,19.64,2.93,27.33,8.94l.06,0c4.6,3.34,9.9,6.74,15.51,10.34,12.06,7.74,25.72,16.51,35.37,26.72,10.79,11.43,14.85,22.93,12.41,35.14,0,0,0,.06,0,.08-.84,5.35-1.4,11.27-2,17.54-1.26,13.45-2.69,28.69-7.48,41.44-5.38,14.34-14.23,23.35-27.06,27.54l-.07,0c-5.45,2-11.3,4.51-17.5,7.17-17.4,7.49-37.13,16-55.23,16-10.7,0-19.64-2.93-27.32-8.94l-.06-.05c-4.61-3.34-9.9-6.74-15.51-10.34-12.06-7.74-25.73-16.51-35.37-26.72C965.59,198.46,961.53,187,964,174.75c0,0,0-.05,0-.08.84-5.35,1.4-11.27,2-17.54,1.26-13.45,2.7-28.69,7.48-41.45,5.39-14.33,14.24-23.34,27.07-27.53l.07,0c5.44-2,11.29-4.51,17.49-7.17,17.41-7.49,37.14-16,55.23-16V63m0,0c-25,0-52.61,15.64-73.41,23.27-37,12.1-33.37,59.44-37.89,88.11-7.12,35.52,39.33,56.28,64.08,74.21,8.65,6.78,18.38,9.37,28.55,9.37,25,0,52.62-15.64,73.42-23.27,37-12.1,33.36-59.44,37.89-88.11,7.11-35.52-39.34-56.28-64.08-74.21-8.66-6.78-18.39-9.37-28.56-9.37Z"/><path class="cls-3" d="M1038.38,99.61v2c10.7,0,19.63,2.92,27.32,8.94l.06,0c4.6,3.33,9.9,6.73,15.51,10.33,12.06,7.74,25.72,16.52,35.37,26.73,10.79,11.43,14.85,22.92,12.41,35.14,0,0,0,0,0,.08-.84,5.34-1.4,11.27-2,17.54-1.27,13.44-2.7,28.69-7.49,41.44-5.38,14.34-14.23,23.35-27.06,27.54l-.07,0c-5.45,2-11.3,4.52-17.49,7.18-17.41,7.48-37.14,16-55.24,16-10.7,0-19.63-2.92-27.32-8.94l-.06,0c-4.61-3.34-9.9-6.74-15.51-10.34-12.06-7.74-25.72-16.51-35.37-26.72-10.8-11.43-14.86-22.93-12.41-35.15,0,0,0-.05,0-.08.85-5.34,1.4-11.26,2-17.54,1.27-13.44,2.7-28.69,7.48-41.44C943.9,138,952.75,129,965.58,124.77l.07,0c5.44-2,11.3-4.51,17.49-7.18,17.41-7.48,37.14-16,55.23-16v-2m0,0c-25,0-52.61,15.64-73.41,23.26-37,12.1-33.37,59.45-37.89,88.11-7.11,35.53,39.33,56.29,64.08,74.22,8.65,6.77,18.38,9.36,28.55,9.36,25,0,52.62-15.63,73.42-23.26,37-12.1,33.37-59.45,37.89-88.11,7.11-35.52-39.33-56.28-64.08-74.21-8.65-6.78-18.39-9.37-28.56-9.37Z"/><path class="cls-2" d="M1020.57,300c-25.31-16.39-59.47-36.1-53.3-66.93,4.53-28.66.86-76,37.9-88.11,29.26-10.73,72.05-37.32,102-13.89,24.74,17.93,71.19,38.69,64.07,74.21-4.52,28.66-.86,76-37.89,88.11-5.14,1.89-10.7,4.26-16.53,6.77"/><path class="cls-2" d="M1020.79,300.17l-.22-.14"/><path class="cls-2" d="M1025.42,2.14c21.7,7,41.49,17.57,45.12,38.9,6,28.42,26.54,72-4,94.67-23.76,19-54.57,57.12-91.23,44.11-29.81-9.4-81.11-14.87-87.19-50.56-6-28.42-26.54-72,4.06-94.67,11.1-8.89,23.74-21.94,37.8-32"/><path class="cls-2" d="M1080.67,2.3a36.6,36.6,0,0,1,4.27,12c6,28.42,26.54,72-4,94.67-23.76,19-54.57,57.12-91.23,44.11-29.81-9.4-81.11-14.87-87.18-50.56-6.05-28.42-26.54-72,4-94.67,2-1.63,4.11-3.39,6.24-5.25"/><path class="cls-3" d="M962.81,8.31h0a43.35,43.35,0,0,1,14.48,2.54l.07,0c5.54,1.75,11.76,3.35,18.35,5,14.17,3.64,30.23,7.77,43,14.48,14.35,7.53,22.34,17.17,24.44,29.47,0,0,0,0,0,.08,1.13,5.3,2.73,11.06,4.44,17.15,3.64,13.08,7.78,27.9,7.85,41.39.08,15.12-5,26.28-15.57,34.11l-.06,0c-4.43,3.55-9,7.7-13.94,12.1-17.83,16-38.05,34.23-60.89,34.23a43.26,43.26,0,0,1-14.48-2.54l-.07,0c-5.55-1.75-11.77-3.35-18.36-5-14.17-3.64-30.23-7.77-43-14.48-14.35-7.53-22.34-17.17-24.43-29.47,0,0,0,0,0-.08-1.13-5.3-2.73-11.06-4.43-17.15-3.65-13.08-7.79-27.9-7.86-41.39-.08-15.12,5-26.28,15.58-34.11l.06,0c4.42-3.54,9-7.7,13.93-12.1,17.84-16,38.06-34.22,60.9-34.23m0-2c-30.06,0-55.67,30.42-76.08,46.77-30.6,22.67-10.1,66.24-4.05,94.67,6.07,35.69,57.37,41.16,87.18,50.56A45,45,0,0,0,985,201c30,0,55.67-30.42,76.08-46.77,30.59-22.67,10.09-66.24,4.05-94.66C1059.07,23.84,1007.76,18.37,978,9a44.84,44.84,0,0,0-15.15-2.66Z"/><path class="cls-3" d="M1008.71,17h0a43,43,0,0,1,14.48,2.54l.07,0c5.54,1.75,11.77,3.35,18.35,5,14.17,3.64,30.24,7.77,43,14.48,14.34,7.52,22.34,17.16,24.43,29.47,0,0,0,0,0,.08,1.13,5.3,2.74,11.05,4.44,17.15,3.65,13.07,7.78,27.9,7.85,41.38.08,15.13-5,26.29-15.57,34.11l-.06,0c-4.42,3.54-9,7.7-13.93,12.09-17.84,16.05-38.06,34.23-60.9,34.23a43.25,43.25,0,0,1-14.48-2.53l-.07,0c-5.54-1.74-11.76-3.34-18.35-5-14.17-3.64-30.24-7.76-43-14.47-14.34-7.53-22.34-17.17-24.43-29.47a.19.19,0,0,0,0-.08c-1.12-5.3-2.73-11.06-4.43-17.16-3.65-13.07-7.78-27.9-7.85-41.38-.08-15.13,5-26.28,15.57-34.11l.06-.05c4.42-3.54,9-7.69,13.93-12.09,17.84-16,38.06-34.23,60.9-34.23m0-2C978.65,15,953,45.39,932.63,61.73c-30.59,22.68-10.1,66.25-4,94.67,6.07,35.69,57.37,41.16,87.18,50.56a45.07,45.07,0,0,0,15.15,2.65c30.06,0,55.67-30.42,76.08-46.76,30.59-22.68,10.1-66.25,4-94.67C1105,32.49,1053.67,27,1023.86,17.62A45.07,45.07,0,0,0,1008.71,15Z"/></g></g></svg>